<?xml version="1.0" encoding="utf-8"?>
<!-- Uploaded to: SVG Repo, www.svgrepo.com, Generator: SVG Repo Mixer Tools -->
<svg width="800px" height="800px" viewBox="-0.72 0 20.236 20.236" xmlns="http://www.w3.org/2000/svg">
  <g id="hula-hoop" transform="translate(-2.602 -2)">
    <circle id="secondary" fill="#2ca9bc" cx="2" cy="2" r="2" transform="translate(10 3)"/>
    <circle id="primary" cx="2" cy="2" r="2" transform="translate(10 3)" fill="none" stroke="#000000" stroke-linecap="round" stroke-linejoin="round" stroke-width="2"/>
    <path id="primary-2" data-name="primary" d="M10,8,5.44,7.45A1,1,0,0,1,4.74,7L4,6" fill="none" stroke="#000000" stroke-linecap="round" stroke-linejoin="round" stroke-width="2"/>
    <path id="primary-3" data-name="primary" d="M14,8l4.56-.55a1,1,0,0,0,.7-.41L20,6" fill="none" stroke="#000000" stroke-linecap="round" stroke-linejoin="round" stroke-width="2"/>
    <path id="primary-4" data-name="primary" d="M14,12.08c2.89.25,5,1,5,1.92,0,1.1-3.13,2-7,2s-7-.9-7-2c0-.9,2.11-1.67,5-1.92" fill="none" stroke="#000000" stroke-linecap="round" stroke-linejoin="round" stroke-width="2"/>
    <path id="primary-5" data-name="primary" d="M8,21l2-7V8h4v6l2,7" fill="none" stroke="#000000" stroke-linecap="round" stroke-linejoin="round" stroke-width="2"/>
  </g>
</svg>