<?xml version="1.0" encoding="iso-8859-1"?>
<!-- Uploaded to: SVG Repo, www.svgrepo.com, Generator: SVG Repo Mixer Tools -->
<svg version="1.1" id="Layer_1" xmlns="http://www.w3.org/2000/svg" xmlns:xlink="http://www.w3.org/1999/xlink" 
	 viewBox="0 0 481.029 481.029" xml:space="preserve">
<path style="fill:#FFFFFF;" d="M364.85,199.357c-6.392-0.68-13.048-1.296-13.264-1.256l56-96.992
	c2.208-3.824,7.104-5.136,10.928-2.928l20.784,12l-54.784,98.848l-0.48-0.48C378.874,203.389,372.107,200.133,364.85,199.357z"/>
<path style="fill:#F5B945;" d="M351.586,198.101l-13.856-8c-7.656-4.416-10.272-14.2-5.856-21.856l36-62.352
	c4.416-7.656,14.2-10.272,21.856-5.856l13.856,8L351.586,198.101z"/>
<path style="fill:#FFFFFF;" d="M358.339,233.029h-196.8c-6.728,0-12.736-4.208-15.032-10.528l0,0
	c-3.8-10.432,3.928-21.472,15.032-21.472h182.976L358.339,233.029z"/>
<g>
	<polygon style="fill:#F5B945;" points="76.539,95.701 87.379,115.525 107.203,126.365 87.379,137.205 76.539,157.029 
		65.691,137.205 45.875,126.365 65.691,115.525 	"/>
	<polygon style="fill:#F5B945;" points="228.538,7.701 239.378,27.525 259.202,38.365 239.378,49.205 228.538,69.029 217.69,49.205 
		197.874,38.365 217.69,27.525 	"/>
</g>
<path d="M76.531,165.029L76.531,165.029c-2.928,0-5.616-1.592-7.016-4.168l-9.712-17.768l-17.768-9.704
	c-2.568-1.408-4.168-4.096-4.168-7.024c0-2.92,1.592-5.616,4.16-7.016l17.768-9.72l9.712-17.768c2.8-5.144,11.216-5.152,14.04,0
	l9.72,17.768l17.768,9.72c2.568,1.4,4.16,4.096,4.16,7.016c0,2.92-1.6,5.616-4.168,7.016l-17.76,9.72l-9.72,17.768
	C82.155,163.437,79.459,165.029,76.531,165.029z M62.546,126.365l6.984,3.816c1.344,0.736,2.448,1.84,3.184,3.184l3.824,6.992
	l3.824-6.992c0.736-1.344,1.84-2.456,3.184-3.176l6.984-3.824l-6.992-3.832c-1.336-0.736-2.448-1.832-3.176-3.176l-3.824-6.984
	l-3.824,6.984c-0.736,1.344-1.84,2.448-3.176,3.176L62.546,126.365z"/>
<path d="M228.531,77.029L228.531,77.029c-2.928,0-5.616-1.592-7.016-4.168l-9.712-17.768l-17.768-9.704
	c-2.568-1.408-4.168-4.096-4.168-7.024c0-2.92,1.592-5.616,4.16-7.016l17.768-9.72l9.712-17.768c2.8-5.144,11.216-5.152,14.04,0
	l9.72,17.768l17.768,9.72c2.568,1.4,4.16,4.096,4.16,7.016s-1.6,5.616-4.168,7.016l-17.76,9.72l-9.72,17.768
	C234.154,75.437,231.458,77.029,228.531,77.029z M214.546,38.365l6.984,3.816c1.344,0.736,2.448,1.84,3.184,3.184l3.824,6.992
	l3.824-6.992c0.736-1.344,1.84-2.456,3.184-3.176l6.984-3.824l-6.992-3.832c-1.336-0.736-2.448-1.832-3.176-3.176l-3.824-6.984
	l-3.824,6.984c-0.736,1.344-1.84,2.448-3.176,3.176L214.546,38.365z"/>
<g>
	<path style="fill:#FFFFFF;" d="M472.514,433.029h-448c-8.84,0-16-7.16-16-16l0,0c0-8.84,7.16-16,16-16h432c8.84,0,16,7.16,16,16
		V433.029z"/>
	<path style="fill:#FFFFFF;" d="M452.914,401.029h-32l-72.8-200h20.8c6.728,0,12.736,4.208,15.032,10.528L452.914,401.029z"/>
</g>
<g>
	<path style="fill:#D94452;" d="M448.514,473.029h-128c-13.256,0-24-10.744-24-24v-16h176v16
		C472.514,462.285,461.771,473.029,448.514,473.029z"/>
	<path style="fill:#D94452;" d="M64.515,433.029v24c0,8.84-7.16,16-16,16h-8c-8.84,0-16-7.16-16-16v-24H64.515z"/>
</g>
<rect x="200.514" y="201.029" style="fill:#FFFFFF;" width="80" height="72"/>
<rect x="200.514" y="273.029" style="fill:#F5B945;" width="80" height="32"/>
<rect x="80.515" y="401.029" style="fill:#FFFFFF;" width="32" height="32"/>
<rect x="112.515" y="401.029" style="fill:#D94452;" width="32" height="32"/>
<rect x="360.514" y="401.029" style="fill:#FFFFFF;" width="32" height="32"/>
<rect x="392.514" y="401.029" style="fill:#D94452;" width="32" height="32"/>
<path d="M458.586,393.237l-66.208-181.904l53.912-97.28c2.12-3.816,0.784-8.624-3-10.808l-20.784-12
	c-3.696-2.136-8.008-2.696-12.144-1.6c-4.136,1.112-7.584,3.76-9.72,7.456l-6.928-4c-5.552-3.192-12.024-4.056-18.216-2.4
	c-6.192,1.656-11.368,5.624-14.576,11.176l-36,62.36c-3.208,5.544-4.056,12.016-2.4,18.208c1.088,4.08,3.264,7.648,6.16,10.568
	H161.538c-7.824,0-15.168,3.832-19.664,10.232c-4.488,6.408-5.568,14.624-2.896,21.968c3.448,9.464,12.512,15.816,22.56,15.816
	h30.976v64c0,4.424,3.584,8,8,8h80c4.416,0,8-3.576,8-8v-64h65.648l55.328,152H24.515c-13.232,0-24,10.768-24,24
	c0,10.416,6.712,19.216,16,22.528v17.472c0,13.232,10.768,24,24,24h8c13.232,0,24-10.768,24-24v-16h216v8c0,17.648,14.352,32,32,32
	h128c17.648,0,32-14.352,32-32v-16v-16C480.514,404.501,470.842,394.309,458.586,393.237z M464.514,417.029v8h-32v-16h20.4h3.6
	C460.922,409.029,464.514,412.613,464.514,417.029z M400.514,409.029h16v16h-16V409.029z M426.514,393.029l-66.976-184h9.368
	c1.264,0,2.432,0.376,3.52,0.92c0.472,0.248,0.928,0.56,1.392,0.84c1.144,0.904,2.088,2.072,2.608,3.504l65.064,178.736H426.514z
	 M413.507,105.109l14.48,8.072l-46.168,83.76c-0.496-0.304-0.904-0.544-1.408-0.816c-0.48-0.264-0.888-0.536-1.384-0.776
	c-4.192-2.072-8.68-3.44-13.36-3.936c-0.32-0.04-1.624-0.072-1.936-0.104l44.784-79.272c0-0.008,0-0.016,0-0.024L413.507,105.109z
	 M338.802,172.245l36-62.36c1.072-1.848,2.8-3.168,4.856-3.728c0.688-0.176,1.384-0.272,2.08-0.272c1.384,0,2.752,0.368,3.992,1.08
	l6.928,4l-29.336,50.8l-14.664,25.4l-6.936-4c-1.848-1.072-3.168-2.792-3.72-4.848C337.451,176.253,337.73,174.101,338.802,172.245z
	 M272.514,209.029v56h-64v-56H272.514z M161.538,225.029c-3.352,0-6.368-2.12-7.52-5.264c-0.904-2.488-0.552-5.16,0.968-7.32
	c1.52-2.176,3.912-3.416,6.552-3.416h30.976v16H161.538z M272.514,297.029h-64v-16h64V297.029z M288.514,225.029v-16h50.744
	l6.912,16H288.514z M384.514,409.029v16h-16v-16H384.514z M296.514,425.029h-144v-16h200v16H296.514z M24.515,409.029h48v16h-8h-40
	c-4.408,0-8-3.584-8-8S20.107,409.029,24.515,409.029z M56.514,457.029c0,4.416-3.592,8-8,8h-8c-4.408,0-8-3.584-8-8v-16h24V457.029
	z M88.515,409.029h16v16h-16V409.029z M120.515,425.029v-16h16v16H120.515z M464.514,449.029c0,8.824-7.176,16-16,16h-128
	c-8.824,0-16-7.176-16-16v-8h56h32h32h40V449.029z"/>
</svg>