<!DOCTYPE svg PUBLIC "-//W3C//DTD SVG 1.1//EN" "http://www.w3.org/Graphics/SVG/1.1/DTD/svg11.dtd">
<!-- Uploaded to: SVG Repo, www.svgrepo.com, Transformed by: SVG Repo Mixer Tools -->
<svg fill="#aa0e0e" height="800px" width="800px" version="1.1" id="Layer_1" xmlns="http://www.w3.org/2000/svg" xmlns:xlink="http://www.w3.org/1999/xlink" viewBox="0 0 512 512" xml:space="preserve" stroke="#aa0e0e">
<g id="SVGRepo_bgCarrier" stroke-width="0"/>
<g id="SVGRepo_tracerCarrier" stroke-linecap="round" stroke-linejoin="round"/>
<g id="SVGRepo_iconCarrier"> <g> <g> <path d="M153.599,76.8c-35.285,0-64,28.706-64,64c0,35.294,28.715,64,64,64c35.294,0,64-28.715,64-64 C217.599,105.506,188.893,76.8,153.599,76.8z M153.599,179.2c-21.205,0-38.4-17.195-38.4-38.4c0-21.205,17.195-38.4,38.4-38.4 c21.205,0,38.4,17.195,38.4,38.4C191.999,162.005,174.805,179.2,153.599,179.2z"/> </g> </g> <g> <g> <path d="M306.423,494.823l-51.2-140.8c-1.835-5.06-6.639-8.422-12.023-8.422h-89.6V230.4c0-7.074-5.726-12.8-12.8-12.8 c-7.074,0-12.8,5.726-12.8,12.8v128c0,7.074,5.726,12.8,12.8,12.8h93.44l48.137,132.378c1.886,5.197,6.801,8.422,12.023,8.422 c1.451,0,2.927-0.247,4.378-0.776C305.416,508.809,308.855,501.47,306.423,494.823z"/> </g> </g> <g> <g> <path d="M209.919,396.8h-107.52c-7.074,0-12.8,5.726-12.8,12.8c0,7.074,5.726,12.8,12.8,12.8h107.52c7.074,0,12.8-5.726,12.8-12.8 C222.719,402.526,216.993,396.8,209.919,396.8z"/> </g> </g> <g> <g> <path d="M340.36,7.074c-3.157-6.323-10.863-8.875-17.169-5.726c-6.323,3.166-8.892,10.846-5.726,17.178 c22.886,45.79,12.228,85.726-0.111,131.959c-7.603,28.424-15.454,57.839-15.991,90.914c-0.111,7.074,5.521,12.902,12.587,13.013 c0.077,0,0.154,0,0.213,0c6.972,0,12.689-5.598,12.8-12.587c0.486-29.935,7.927-57.796,15.113-84.736 C354.628,110.114,367.59,61.542,340.36,7.074z"/> </g> </g> <g> <g> <path d="M406.34,7.074c-3.174-6.323-10.837-8.875-17.178-5.726c-6.323,3.166-8.892,10.846-5.726,17.178 c22.903,45.79,12.237,85.726-0.111,131.977c-13.141,49.203-28.041,104.977-0.324,174.251c1.997,5.009,6.81,8.047,11.887,8.047 c1.587,0,3.2-0.29,4.753-0.913c6.562-2.628,9.762-10.078,7.134-16.64c-24.559-61.389-11.426-110.575,1.271-158.148 C420.599,110.123,433.578,61.551,406.34,7.074z"/> </g> </g> </g>
</svg>