<!DOCTYPE svg PUBLIC "-//W3C//DTD SVG 1.1//EN" "http://www.w3.org/Graphics/SVG/1.1/DTD/svg11.dtd">
<!-- Uploaded to: SVG Repo, www.svgrepo.com, Transformed by: SVG Repo Mixer Tools -->
<svg fill="#b43c70" height="800px" width="800px" version="1.1" id="Layer_1" xmlns="http://www.w3.org/2000/svg" xmlns:xlink="http://www.w3.org/1999/xlink" viewBox="0 0 512 512" xml:space="preserve" stroke="#b43c70">
<g id="SVGRepo_bgCarrier" stroke-width="0"/>
<g id="SVGRepo_tracerCarrier" stroke-linecap="round" stroke-linejoin="round"/>
<g id="SVGRepo_iconCarrier"> <g> <g> <path d="M372.096,109.585C379.529,100.693,384,89.259,384,76.8c0-28.715-22.485-51.2-51.2-51.2 c-147.499,0-204.117,79.258-224.879,153.6H25.6C11.46,179.2,0,190.66,0,204.8v204.8c0,14.14,11.46,25.6,25.6,25.6h81.143 c34.236,31.676,79.855,51.2,130.057,51.2H320c105.865,0,192-86.135,192-192C512,206.575,452.736,132.343,372.096,109.585z M102.4,409.6H25.6V204.8h76.8V409.6z M320,460.8h-83.2c-41.685,0-79.607-15.539-108.8-40.875V198.4 C156.186,78.029,251.938,51.2,332.8,51.2c14.797,0,25.6,11.46,25.6,25.6c0,14.14-11.46,25.6-25.6,25.6h-51.2 c-7.066,0-12.8,5.726-12.8,12.8c0,7.066,5.734,12.8,12.8,12.8H320c91.904,0,166.4,74.496,166.4,166.4 C486.4,386.295,411.904,460.8,320,460.8z"/> </g> </g> <g> <g> <path d="M430.541,360.149c-5.675-4.198-13.705-3.012-17.92,2.662C390.929,392.115,356.301,409.6,320,409.6h-83.2 c-22.477,0-44.365-6.665-63.309-19.26c-5.897-3.908-13.85-2.321-17.749,3.576c-3.908,5.888-2.313,13.841,3.575,17.749 c23.159,15.394,49.954,23.535,77.483,23.535H320c44.373,0,86.69-21.359,113.203-57.139 C437.402,372.369,436.216,364.365,430.541,360.149z"/> </g> </g> </g>
</svg>