<?xml version="1.0" encoding="utf-8"?><!-- Uploaded to: SVG Repo, www.svgrepo.com, Generator: SVG Repo Mixer Tools -->
<svg fill="#000000" width="800px" height="800px" viewBox="0 0 24 24" id="glass-water-2" data-name="Flat Color" xmlns="http://www.w3.org/2000/svg" class="icon flat-color"><path id="primary" d="M19.49,2.67A2,2,0,0,0,18,2H6a2,2,0,0,0-1.49.67A2,2,0,0,0,4,4.22l1.78,16a2,2,0,0,0,2,1.78h8.44a2,2,0,0,0,2-1.78L20,4.22A2,2,0,0,0,19.49,2.67Z" style="fill: rgb(0, 0, 0);"></path><path id="secondary" d="M20,4.22,19.4,9.5h-1c-6.24-.06-6.59-.95-12.89-1h-1L4,4.22a2,2,0,0,1,.5-1.55A2,2,0,0,1,6,2H18a2,2,0,0,1,1.49.67A2,2,0,0,1,20,4.22Z" style="fill: rgb(44, 169, 188);"></path></svg>