<!DOCTYPE svg PUBLIC "-//W3C//DTD SVG 1.1//EN" "http://www.w3.org/Graphics/SVG/1.1/DTD/svg11.dtd">
<!-- Uploaded to: SVG Repo, www.svgrepo.com, Transformed by: SVG Repo Mixer Tools -->
<svg fill="#21c06e" height="800px" width="800px" version="1.1" id="Layer_1" xmlns="http://www.w3.org/2000/svg" xmlns:xlink="http://www.w3.org/1999/xlink" viewBox="0 0 256 256" xml:space="preserve" stroke="#21c06e">
<g id="SVGRepo_bgCarrier" stroke-width="0"/>
<g id="SVGRepo_tracerCarrier" stroke-linecap="round" stroke-linejoin="round"/>
<g id="SVGRepo_iconCarrier"> <g> <circle cx="128" cy="30.4" r="26.1"/> <path d="M196.9,60.6l36.8-36.8c4.5-4.5,4.5-11.7,0-16.1c-4.5-4.5-11.7-4.5-16.1,0l-36.8,36.8l-12.7,12.7c-3.8,3.8-8.8,5.7-13.8,5.7 H128h0h-26.3c-5,0-10-1.9-13.8-5.7L75.2,44.5L38.4,7.6c-4.5-4.5-11.7-4.5-16.1,0c-4.5,4.5-4.5,11.7,0,16.1l36.8,36.8l33.1,33.1v1.8 v74.9H43.3c-9,0-16.3,7.3-16.3,16.3c0,4.5,1.8,8.5,4.7,11.5l48.7,48.7c6.4,6.4,16.7,6.4,23,0s6.4-16.7,0-23l-20.9-20.9l45.3,0l0-13 c0,0,0,0,0,0s0,0,0,0l0,13l45.3,0l-20.9,20.9c-6.4,6.4-6.4,16.7,0,23s16.7,6.4,23,0l48.7-48.7c2.9-2.9,4.7-7,4.7-11.5 c0-9-7.3-16.3-16.3-16.3h-48.9V93.7L196.9,60.6z"/> </g> </g>
</svg>