<?xml version="1.0" ?>
<!DOCTYPE svg  PUBLIC '-//W3C//DTD SVG 1.1//EN'  'http://www.w3.org/Graphics/SVG/1.1/DTD/svg11.dtd'>
<!-- Uploaded to: SVG Repo, www.svgrepo.com, Generator: SVG Repo Mixer Tools -->
<svg width="800px" height="800px" viewBox="0 0 24 24" enable-background="new 0 0 24 24" version="1.1" xml:space="preserve" xmlns="http://www.w3.org/2000/svg" xmlns:xlink="http://www.w3.org/1999/xlink">
<g id="Layer_27"/>
<g id="Layer_2"/>
<g id="Layer_3"/>
<g id="Layer_4"/>
<g id="Layer_5"/>
<g id="Layer_6"/>
<g id="Layer_7"/>
<g id="Layer_8"/>
<g id="Layer_9">
<g>
<path d="M22,8v8c0,1.65-1.35,3-3,3h-2c-0.55,0-1-0.45-1-1v-3H8v3c0,0.55-0.45,1-1,1H5c-1.65,0-3-1.35-3-3V8    c0-1.65,1.35-3,3-3h2c0.55,0,1,0.45,1,1v3h8V6c0-0.55,0.45-1,1-1h2C20.65,5,22,6.35,22,8z" fill="#95CF4E"/>
</g>
<g>
<path d="M8,6v12c0,0.55-0.45,1-1,1H5c-1.65,0-3-1.35-3-3V8c0-1.65,1.35-3,3-3h2C7.55,5,8,5.45,8,6z" fill="#35B25B"/>
</g>
<g>
<path d="M22,8v8c0,1.65-1.35,3-3,3h-2c-0.55,0-1-0.45-1-1V6c0-0.55,0.45-1,1-1h2C20.65,5,22,6.35,22,8z" fill="#35B25B"/>
</g>
</g>
<g id="Layer_10"/>
<g id="Layer_11"/>
<g id="Layer_12"/>
<g id="Layer_13"/>
<g id="Layer_14"/>
<g id="Layer_15"/>
<g id="Layer_16">
<g id="Layer_17"/>
</g>
<g id="Layer_18"/>
<g id="Layer_19"/>
<g id="Layer_20"/>
<g id="Layer_21"/>
<g id="Layer_22"/>
<g id="Layer_23"/>
<g id="Layer_24"/>
<g id="Layer_25"/>
<g id="Layer_26"/>
</svg>