<?xml version="1.0" ?>
<!DOCTYPE svg  PUBLIC '-//W3C//DTD SVG 1.1//EN'  'http://www.w3.org/Graphics/SVG/1.1/DTD/svg11.dtd'>
<!-- Uploaded to: SVG Repo, www.svgrepo.com, Generator: SVG Repo Mixer Tools -->
<svg width="800px" height="800px" viewBox="0 0 24 24" enable-background="new 0 0 24 24" version="1.1" xml:space="preserve" xmlns="http://www.w3.org/2000/svg" xmlns:xlink="http://www.w3.org/1999/xlink">
<g id="Layer_27"/>
<g id="Layer_2"/>
<g id="Layer_3"/>
<g id="Layer_4"/>
<g id="Layer_5"/>
<g id="Layer_6"/>
<g id="Layer_7"/>
<g id="Layer_8"/>
<g id="Layer_9"/>
<g id="Layer_10"/>
<g id="Layer_11"/>
<g id="Layer_12"/>
<g id="Layer_13"/>
<g id="Layer_14"/>
<g id="Layer_15"/>
<g id="Layer_16">
<g id="Layer_17">
<g>
<path d="M15,4v3.29c0,0.32-0.15,0.61-0.4,0.8c-0.18,0.13-0.39,0.2-0.6,0.2c-0.1,0-0.19-0.01-0.29-0.04     c-1.09-0.33-2.33-0.33-3.42,0C9.99,8.34,9.66,8.28,9.4,8.09C9.15,7.9,9,7.61,9,7.29V4c0-1.1,0.9-2,2-2h2C14.1,2,15,2.9,15,4z" fill="#FFAE3E"/>
</g>
<g>
<path d="M20,14c0,4.41-3.59,8-8,8s-8-3.59-8-8c0-3.57,2.3-6.65,5.71-7.67c1.46-0.4399,3.11-0.4399,4.58,0     C17.7,7.35,20,10.43,20,14z" fill="#D34A4B"/>
</g>
<path d="M15.707,10.293c-0.3906-0.3906-1.0234-0.3906-1.4141,0l-1.7816,1.7816C12.3471,12.0308,12.1778,12,12,12    c-1.1025,0-2,0.897-2,2s0.8975,2,2,2s2-0.897,2-2c0-0.1779-0.0308-0.3472-0.0745-0.5114l1.7816-1.7816    C16.0977,11.3164,16.0977,10.6836,15.707,10.293z" fill="#B0DA50"/>
</g>
</g>
<g id="Layer_18"/>
<g id="Layer_19"/>
<g id="Layer_20"/>
<g id="Layer_21"/>
<g id="Layer_22"/>
<g id="Layer_23"/>
<g id="Layer_24"/>
<g id="Layer_25"/>
<g id="Layer_26"/>
</svg>