<?xml version="1.0" encoding="utf-8"?>
<!-- Uploaded to: SVG Repo, www.svgrepo.com, Generator: SVG Repo Mixer Tools -->
<svg xmlns="http://www.w3.org/2000/svg" xmlns:xlink="http://www.w3.org/1999/xlink" version="1.1" id="soundlevels"  viewBox="0 0 209.7477 232.0012" enable-background="new 0 0 209.7477 232.0012" xml:space="preserve" width="512" height="512">
<g>
	<rect x="67.7477" y="124.1775" fill="#D0E8FF" width="12" height="64"/>
	<rect x="147.7477" y="76.1775" fill="#5CB0FF" width="12" height="112"/>
	<rect x="187.7477" y="108.1775" fill="#D0E8FF" width="12" height="80"/>
	<rect x="107.7477" y="92.1775" fill="#5CB0FF" width="12" height="96"/>
	<rect x="27.7477" y="108.1775" fill="#5CB0FF" width="12" height="80"/>
	<path fill="#1C71DA" d="M43.7477,100.1775h-20c-2.209,0-4,1.791-4,4v88c0,2.209,1.791,4,4,4h20c2.209,0,4-1.791,4-4v-88   C47.7477,101.9685,45.9567,100.1775,43.7477,100.1775z M39.7477,188.1775h-12v-80h12V188.1775z"/>
	<path fill="#1C71DA" d="M83.7477,116.1775h-20c-2.209,0-4,1.791-4,4v72c0,2.209,1.791,4,4,4h20c2.209,0,4-1.791,4-4v-72   C87.7477,117.9685,85.9567,116.1775,83.7477,116.1775z M79.7477,188.1775h-12v-64h12V188.1775z"/>
	<path fill="#1C71DA" d="M123.7477,84.1775h-20c-2.209,0-4,1.791-4,4v104c0,2.209,1.791,4,4,4h20c2.209,0,4-1.791,4-4v-104   C127.7477,85.9685,125.9567,84.1775,123.7477,84.1775z M119.7477,188.1775h-12v-96h12V188.1775z"/>
	<path fill="#1C71DA" d="M163.7477,68.1775h-20c-2.209,0-4,1.791-4,4v120c0,2.209,1.791,4,4,4h20c2.209,0,4-1.791,4-4v-120   C167.7477,69.9685,165.9567,68.1775,163.7477,68.1775z M159.7477,188.1775h-12v-112h12V188.1775z"/>
	<path fill="#1C71DA" d="M203.7477,100.1775h-20c-2.209,0-4,1.791-4,4v88c0,2.209,1.791,4,4,4h20c2.209,0,4-1.791,4-4v-88   C207.7477,101.9685,205.9567,100.1775,203.7477,100.1775z M199.7477,188.1775h-12v-80h12V188.1775z"/>
	<path fill="#1C71DA" d="M45.7477,84.1775h-24c-2.209,0-4,1.791-4,4s1.791,4,4,4h24c2.209,0,4-1.791,4-4   S47.9567,84.1775,45.7477,84.1775z"/>
	<path fill="#1C71DA" d="M45.7477,68.1775h-24c-2.209,0-4,1.791-4,4s1.791,4,4,4h24c2.209,0,4-1.791,4-4   S47.9567,68.1775,45.7477,68.1775z"/>
	<path fill="#1C71DA" d="M125.7477,68.1775h-24c-2.209,0-4,1.791-4,4s1.791,4,4,4h24c2.209,0,4-1.791,4-4   S127.9567,68.1775,125.7477,68.1775z"/>
	<path fill="#1C71DA" d="M125.7477,52.1775h-24c-2.209,0-4,1.791-4,4s1.791,4,4,4h24c2.209,0,4-1.791,4-4   S127.9567,52.1775,125.7477,52.1775z"/>
	<path fill="#1C71DA" d="M85.7477,52.1775h-24c-2.209,0-4,1.791-4,4s1.791,4,4,4h24c2.209,0,4-1.791,4-4   S87.9567,52.1775,85.7477,52.1775z"/>
	<path fill="#1C71DA" d="M45.7477,52.1775h-24c-2.209,0-4,1.791-4,4s1.791,4,4,4h24c2.209,0,4-1.791,4-4   S47.9567,52.1775,45.7477,52.1775z"/>
	<path fill="#1C71DA" d="M165.7477,52.1775h-24c-2.209,0-4,1.791-4,4s1.791,4,4,4h24c2.209,0,4-1.791,4-4   S167.9567,52.1775,165.7477,52.1775z"/>
	<path fill="#1C71DA" d="M205.7477,68.1775h-24c-2.209,0-4,1.791-4,4s1.791,4,4,4h24c2.209,0,4-1.791,4-4   S207.9567,68.1775,205.7477,68.1775z"/>
	<path fill="#1C71DA" d="M205.7477,52.1775h-24c-2.209,0-4,1.791-4,4s1.791,4,4,4h24c2.209,0,4-1.791,4-4   S207.9567,52.1775,205.7477,52.1775z"/>
	<path fill="#1C71DA" d="M125.7477,36.1775h-24c-2.209,0-4,1.791-4,4s1.791,4,4,4h24c2.209,0,4-1.791,4-4   S127.9567,36.1775,125.7477,36.1775z"/>
	<path fill="#1C71DA" d="M85.7477,36.1775h-24c-2.209,0-4,1.791-4,4s1.791,4,4,4h24c2.209,0,4-1.791,4-4   S87.9567,36.1775,85.7477,36.1775z"/>
	<path fill="#1C71DA" d="M45.7477,36.1775h-24c-2.209,0-4,1.791-4,4s1.791,4,4,4h24c2.209,0,4-1.791,4-4   S47.9567,36.1775,45.7477,36.1775z"/>
	<path fill="#1C71DA" d="M165.7477,36.1775h-24c-2.209,0-4,1.791-4,4s1.791,4,4,4h24c2.209,0,4-1.791,4-4   S167.9567,36.1775,165.7477,36.1775z"/>
	<path fill="#1C71DA" d="M181.7477,44.1775h24c2.209,0,4-1.791,4-4s-1.791-4-4-4h-24c-2.209,0-4,1.791-4,4   S179.5387,44.1775,181.7477,44.1775z"/>
	<path fill="#1C71DA" d="M205.7477,84.1775h-24c-2.209,0-4,1.791-4,4s1.791,4,4,4h24c2.209,0,4-1.791,4-4   S207.9567,84.1775,205.7477,84.1775z"/>
	<path fill="#1C71DA" d="M85.7477,84.1775h-24c-2.209,0-4,1.791-4,4s1.791,4,4,4h24c2.209,0,4-1.791,4-4   S87.9567,84.1775,85.7477,84.1775z"/>
	<path fill="#1C71DA" d="M85.7477,100.1775h-24c-2.209,0-4,1.791-4,4s1.791,4,4,4h24c2.209,0,4-1.791,4-4   S87.9567,100.1775,85.7477,100.1775z"/>
	<path fill="#1C71DA" d="M85.7477,68.1775h-24c-2.209,0-4,1.791-4,4s1.791,4,4,4h24c2.209,0,4-1.791,4-4   S87.9567,68.1775,85.7477,68.1775z"/>
</g>
<path fill="#FF5D5D" d="M4.0001,232.0012c-1.0239,0-2.0474-0.3906-2.8286-1.1714c-1.562-1.5625-1.562-4.0947,0-5.6572  l14.1421-14.1421c1.5625-1.5615,4.0947-1.5615,5.6572,0c1.562,1.5625,1.562,4.0947,0,5.6572L6.8287,230.8298  C6.0475,231.6106,5.024,232.0012,4.0001,232.0012z"/>
<path fill="#FF5D5D" d="M18.1422,231.9998c-1.0239,0-2.0474-0.3906-2.8286-1.1714L1.1715,216.6858  c-1.562-1.5625-1.562-4.0952,0-5.6572c1.563-1.5615,4.0952-1.5605,5.6572,0l14.1421,14.1426c1.562,1.5625,1.562,4.0952,0,5.6572  C20.1896,231.6091,19.1656,231.9998,18.1422,231.9998z"/>
<path fill="#00D40B" d="M170.0001,232.0012c-7.7197,0-14-6.2803-14-14s6.2803-14,14-14s14,6.2803,14,14  S177.7198,232.0012,170.0001,232.0012z M170.0001,212.0012c-3.3086,0-6,2.6914-6,6s2.6914,6,6,6s6-2.6914,6-6  S173.3087,212.0012,170.0001,212.0012z"/>
<path fill="#FFC504" d="M131.3136,30.6267c-1.0239,0-2.0474-0.3906-2.8286-1.1714l-11.3135-11.3135  c-1.562-1.5625-1.562-4.0947,0-5.6572L128.485,1.1711c1.5625-1.5615,4.0952-1.5615,5.6567,0l11.314,11.3135  c0.7505,0.7505,1.1719,1.7676,1.1719,2.8286s-0.4214,2.0781-1.1719,2.8286l-11.314,11.3135  C133.361,30.2361,132.337,30.6267,131.3136,30.6267z M125.6569,15.3132l5.6567,5.6567l5.6572-5.6567l-5.6572-5.6567  L125.6569,15.3132z"/>
</svg>